<?xml version="1.0" encoding="UTF-8"?>
<svg id="Layer_2" data-name="Layer 2" xmlns="http://www.w3.org/2000/svg" viewBox="0 0 608.34 426.12">
  <defs>
    <style>
      .cls-1 {
        fill: #fff;
      }

      .cls-2 {
        fill: #f9c33d;
      }

      .cls-3 {
        fill: #ed9935;
      }
    </style>
  </defs>
  <g id="Objects">
    <g>
      <path class="cls-3" d="M.57,131.01L0,31.9C0,14.28,14.29,0,31.9,0h206.52c7.3,0,14.39,2.51,20.07,7.1l41.71,33.76c-.32.24-.63.48-.94.73l5.19,89.42H.57Z"/>
      <rect class="cls-1" x="39.62" y="66.06" width="539" height="319" rx="22.76" ry="22.76"/>
      <path class="cls-2" d="M608.34,66.38v327.83c0,17.62-14.29,31.9-31.9,31.9H32.46c-17.61,0-31.9-14.28-31.9-31.9V131.36c0-.11,0-.23.01-.34.17-17.45,14.39-31.56,31.89-31.56h184.01c7.3,0,14.39-2.51,20.07-7.1l62.71-50.76c.31-.25.62-.49.94-.73,5.52-4.13,12.22-6.38,19.14-6.38h257.1c17.61,0,31.9,14.29,31.9,31.9Z"/>
    </g>
  </g>
</svg>